<mxfile host="65bd71144e" modified="2021-02-07T21:12:55.378Z" agent="5.0 (Windows NT 10.0; Win64; x64) AppleWebKit/537.36 (KHTML, like Gecko) Code/1.53.0 Chrome/87.0.4280.141 Electron/11.2.1 Safari/537.36" etag="nrLI_lzxv-YUBpvTi1Ve" version="13.10.0" type="embed">
    <diagram id="V-tw-FiJrbPkheP1UKxz" name="Page-1">
        <mxGraphModel dx="3031" dy="3011" grid="0" gridSize="10" guides="1" tooltips="1" connect="1" arrows="1" fold="1" page="1" pageScale="1" pageWidth="827" pageHeight="1169" math="0" shadow="0">
            <root>
                <mxCell id="0"/>
                <mxCell id="1" parent="0"/>
                <mxCell id="131" value="Hotels" style="text;html=1;strokeColor=#A50040;fillColor=#d80073;align=center;verticalAlign=middle;whiteSpace=wrap;rounded=0;fontColor=#ffffff;" parent="1" vertex="1">
                    <mxGeometry x="-881" y="-1392" width="110" height="40" as="geometry"/>
                </mxCell>
                <mxCell id="784" style="edgeStyle=orthogonalEdgeStyle;rounded=0;orthogonalLoop=1;jettySize=auto;html=1;entryX=0;entryY=0.5;entryDx=0;entryDy=0;" parent="1" source="255" target="783" edge="1">
                    <mxGeometry relative="1" as="geometry"/>
                </mxCell>
                <mxCell id="793" style="edgeStyle=orthogonalEdgeStyle;rounded=0;orthogonalLoop=1;jettySize=auto;html=1;entryX=0.5;entryY=0;entryDx=0;entryDy=0;" parent="1" source="255" target="792" edge="1">
                    <mxGeometry relative="1" as="geometry"/>
                </mxCell>
                <mxCell id="871" style="edgeStyle=orthogonalEdgeStyle;rounded=0;orthogonalLoop=1;jettySize=auto;html=1;exitX=1.022;exitY=0.054;exitDx=0;exitDy=0;exitPerimeter=0;entryX=0.5;entryY=0;entryDx=0;entryDy=0;" parent="1" source="255" target="866" edge="1">
                    <mxGeometry relative="1" as="geometry">
                        <mxPoint x="-897.6862505744484" y="-1302.1961203182443" as="targetPoint"/>
                    </mxGeometry>
                </mxCell>
                <mxCell id="255" value="Hotel" style="shape=table;startSize=30;container=1;collapsible=1;childLayout=tableLayout;fixedRows=1;rowLines=0;fontStyle=1;align=center;resizeLast=1;" parent="1" vertex="1">
                    <mxGeometry x="-1230" y="-1318.5" width="237" height="301" as="geometry"/>
                </mxCell>
                <mxCell id="256" value="" style="shape=partialRectangle;collapsible=0;dropTarget=0;pointerEvents=0;fillColor=none;top=0;left=0;bottom=1;right=0;points=[[0,0.5],[1,0.5]];portConstraint=eastwest;" parent="255" vertex="1">
                    <mxGeometry y="30" width="237" height="30" as="geometry"/>
                </mxCell>
                <mxCell id="257" value="PK" style="shape=partialRectangle;connectable=0;fillColor=none;top=0;left=0;bottom=0;right=0;fontStyle=1;overflow=hidden;" parent="256" vertex="1">
                    <mxGeometry width="30" height="30" as="geometry"/>
                </mxCell>
                <mxCell id="258" value="Hotel_id" style="shape=partialRectangle;connectable=0;fillColor=none;top=0;left=0;bottom=0;right=0;align=left;spacingLeft=6;fontStyle=5;overflow=hidden;" parent="256" vertex="1">
                    <mxGeometry x="30" width="100.00000000000011" height="30" as="geometry"/>
                </mxCell>
                <mxCell id="259" value="BIGINT" style="shape=partialRectangle;connectable=0;fillColor=none;top=0;left=0;bottom=0;right=0;align=left;spacingLeft=6;fontStyle=5;overflow=hidden;" parent="256" vertex="1">
                    <mxGeometry x="130.0000000000001" width="106.99999999999989" height="30" as="geometry"/>
                </mxCell>
                <mxCell id="260" value="" style="shape=partialRectangle;collapsible=0;dropTarget=0;pointerEvents=0;fillColor=none;top=0;left=0;bottom=0;right=0;points=[[0,0.5],[1,0.5]];portConstraint=eastwest;" parent="255" vertex="1">
                    <mxGeometry y="60" width="237" height="30" as="geometry"/>
                </mxCell>
                <mxCell id="261" value="" style="shape=partialRectangle;connectable=0;fillColor=none;top=0;left=0;bottom=0;right=0;editable=1;overflow=hidden;" parent="260" vertex="1">
                    <mxGeometry width="30" height="30" as="geometry"/>
                </mxCell>
                <mxCell id="262" value="Nome" style="shape=partialRectangle;connectable=0;fillColor=none;top=0;left=0;bottom=0;right=0;align=left;spacingLeft=6;overflow=hidden;" parent="260" vertex="1">
                    <mxGeometry x="30" width="100.00000000000011" height="30" as="geometry"/>
                </mxCell>
                <mxCell id="263" value="VARCHAR (50)" style="shape=partialRectangle;connectable=0;fillColor=none;top=0;left=0;bottom=0;right=0;align=left;spacingLeft=6;overflow=hidden;" parent="260" vertex="1">
                    <mxGeometry x="130.0000000000001" width="106.99999999999989" height="30" as="geometry"/>
                </mxCell>
                <mxCell id="264" value="" style="shape=partialRectangle;collapsible=0;dropTarget=0;pointerEvents=0;fillColor=none;top=1;left=0;bottom=1;right=0;points=[[0,0.5],[1,0.5]];portConstraint=eastwest;" parent="255" vertex="1">
                    <mxGeometry y="90" width="237" height="30" as="geometry"/>
                </mxCell>
                <mxCell id="265" value="" style="shape=partialRectangle;connectable=0;fillColor=none;top=0;left=0;bottom=0;right=0;editable=1;overflow=hidden;" parent="264" vertex="1">
                    <mxGeometry width="30" height="30" as="geometry"/>
                </mxCell>
                <mxCell id="266" value="Descrizione" style="shape=partialRectangle;connectable=0;fillColor=none;top=0;left=0;bottom=0;right=0;align=left;spacingLeft=6;overflow=hidden;" parent="264" vertex="1">
                    <mxGeometry x="30" width="100.00000000000011" height="30" as="geometry"/>
                </mxCell>
                <mxCell id="267" value="TEXT" style="shape=partialRectangle;connectable=0;fillColor=none;top=0;left=0;bottom=0;right=0;align=left;spacingLeft=6;overflow=hidden;" parent="264" vertex="1">
                    <mxGeometry x="130.0000000000001" width="106.99999999999989" height="30" as="geometry"/>
                </mxCell>
                <mxCell id="268" value="" style="shape=partialRectangle;collapsible=0;dropTarget=0;pointerEvents=0;fillColor=none;top=0;left=0;bottom=0;right=0;points=[[0,0.5],[1,0.5]];portConstraint=eastwest;" parent="255" vertex="1">
                    <mxGeometry y="120" width="237" height="30" as="geometry"/>
                </mxCell>
                <mxCell id="269" value="" style="shape=partialRectangle;connectable=0;fillColor=none;top=0;left=0;bottom=0;right=0;editable=1;overflow=hidden;" parent="268" vertex="1">
                    <mxGeometry width="30" height="30" as="geometry"/>
                </mxCell>
                <mxCell id="270" value="Indirizzo" style="shape=partialRectangle;connectable=0;fillColor=none;top=0;left=0;bottom=0;right=0;align=left;spacingLeft=6;overflow=hidden;" parent="268" vertex="1">
                    <mxGeometry x="30" width="100.00000000000011" height="30" as="geometry"/>
                </mxCell>
                <mxCell id="271" value="VARCHAR (30)" style="shape=partialRectangle;connectable=0;fillColor=none;top=0;left=0;bottom=0;right=0;align=left;spacingLeft=6;overflow=hidden;" parent="268" vertex="1">
                    <mxGeometry x="130.0000000000001" width="106.99999999999989" height="30" as="geometry"/>
                </mxCell>
                <mxCell id="272" value="" style="shape=partialRectangle;collapsible=0;dropTarget=0;pointerEvents=0;fillColor=none;top=1;left=0;bottom=1;right=0;points=[[0,0.5],[1,0.5]];portConstraint=eastwest;" parent="255" vertex="1">
                    <mxGeometry y="150" width="237" height="30" as="geometry"/>
                </mxCell>
                <mxCell id="273" value="" style="shape=partialRectangle;connectable=0;fillColor=none;top=0;left=0;bottom=0;right=0;editable=1;overflow=hidden;" parent="272" vertex="1">
                    <mxGeometry width="30" height="30" as="geometry"/>
                </mxCell>
                <mxCell id="274" value="CittÃ " style="shape=partialRectangle;connectable=0;fillColor=none;top=0;left=0;bottom=0;right=0;align=left;spacingLeft=6;overflow=hidden;" parent="272" vertex="1">
                    <mxGeometry x="30" width="100.00000000000011" height="30" as="geometry"/>
                </mxCell>
                <mxCell id="275" value="VARCHAR (58)" style="shape=partialRectangle;connectable=0;fillColor=none;top=0;left=0;bottom=0;right=0;align=left;spacingLeft=6;overflow=hidden;" parent="272" vertex="1">
                    <mxGeometry x="130.0000000000001" width="106.99999999999989" height="30" as="geometry"/>
                </mxCell>
                <mxCell id="276" value="" style="shape=partialRectangle;collapsible=0;dropTarget=0;pointerEvents=0;fillColor=none;top=0;left=0;bottom=0;right=0;points=[[0,0.5],[1,0.5]];portConstraint=eastwest;" parent="255" vertex="1">
                    <mxGeometry y="180" width="237" height="30" as="geometry"/>
                </mxCell>
                <mxCell id="277" value="" style="shape=partialRectangle;connectable=0;fillColor=none;top=0;left=0;bottom=0;right=0;editable=1;overflow=hidden;" parent="276" vertex="1">
                    <mxGeometry width="30" height="30" as="geometry"/>
                </mxCell>
                <mxCell id="278" value="Stato" style="shape=partialRectangle;connectable=0;fillColor=none;top=0;left=0;bottom=0;right=0;align=left;spacingLeft=6;overflow=hidden;" parent="276" vertex="1">
                    <mxGeometry x="30" width="100.00000000000011" height="30" as="geometry"/>
                </mxCell>
                <mxCell id="279" value="VARCHAR (15)" style="shape=partialRectangle;connectable=0;fillColor=none;top=0;left=0;bottom=0;right=0;align=left;spacingLeft=6;overflow=hidden;" parent="276" vertex="1">
                    <mxGeometry x="130.0000000000001" width="106.99999999999989" height="30" as="geometry"/>
                </mxCell>
                <mxCell id="280" value="" style="shape=partialRectangle;collapsible=0;dropTarget=0;pointerEvents=0;fillColor=none;top=1;left=0;bottom=1;right=0;points=[[0,0.5],[1,0.5]];portConstraint=eastwest;" parent="255" vertex="1">
                    <mxGeometry y="210" width="237" height="30" as="geometry"/>
                </mxCell>
                <mxCell id="281" value="" style="shape=partialRectangle;connectable=0;fillColor=none;top=0;left=0;bottom=0;right=0;editable=1;overflow=hidden;" parent="280" vertex="1">
                    <mxGeometry width="30" height="30" as="geometry"/>
                </mxCell>
                <mxCell id="282" value="CAP" style="shape=partialRectangle;connectable=0;fillColor=none;top=0;left=0;bottom=0;right=0;align=left;spacingLeft=6;overflow=hidden;" parent="280" vertex="1">
                    <mxGeometry x="30" width="100.00000000000011" height="30" as="geometry"/>
                </mxCell>
                <mxCell id="283" value="VARCHAR (10)" style="shape=partialRectangle;connectable=0;fillColor=none;top=0;left=0;bottom=0;right=0;align=left;spacingLeft=6;overflow=hidden;" parent="280" vertex="1">
                    <mxGeometry x="130.0000000000001" width="106.99999999999989" height="30" as="geometry"/>
                </mxCell>
                <mxCell id="284" value="" style="shape=partialRectangle;collapsible=0;dropTarget=0;pointerEvents=0;fillColor=none;top=0;left=0;bottom=0;right=0;points=[[0,0.5],[1,0.5]];portConstraint=eastwest;" parent="255" vertex="1">
                    <mxGeometry y="240" width="237" height="30" as="geometry"/>
                </mxCell>
                <mxCell id="285" value="" style="shape=partialRectangle;connectable=0;fillColor=none;top=0;left=0;bottom=0;right=0;editable=1;overflow=hidden;" parent="284" vertex="1">
                    <mxGeometry width="30" height="30" as="geometry"/>
                </mxCell>
                <mxCell id="286" value="Telefono" style="shape=partialRectangle;connectable=0;fillColor=none;top=0;left=0;bottom=0;right=0;align=left;spacingLeft=6;overflow=hidden;" parent="284" vertex="1">
                    <mxGeometry x="30" width="100.00000000000011" height="30" as="geometry"/>
                </mxCell>
                <mxCell id="287" value="TINYINT" style="shape=partialRectangle;connectable=0;fillColor=none;top=0;left=0;bottom=0;right=0;align=left;spacingLeft=6;overflow=hidden;" parent="284" vertex="1">
                    <mxGeometry x="130.0000000000001" width="106.99999999999989" height="30" as="geometry"/>
                </mxCell>
                <mxCell id="288" value="" style="shape=partialRectangle;collapsible=0;dropTarget=0;pointerEvents=0;fillColor=none;top=1;left=0;bottom=1;right=0;points=[[0,0.5],[1,0.5]];portConstraint=eastwest;" parent="255" vertex="1">
                    <mxGeometry y="270" width="237" height="30" as="geometry"/>
                </mxCell>
                <mxCell id="289" value="" style="shape=partialRectangle;connectable=0;fillColor=none;top=0;left=0;bottom=0;right=0;editable=1;overflow=hidden;" parent="288" vertex="1">
                    <mxGeometry width="30" height="30" as="geometry"/>
                </mxCell>
                <mxCell id="290" value="Email" style="shape=partialRectangle;connectable=0;fillColor=none;top=0;left=0;bottom=0;right=0;align=left;spacingLeft=6;overflow=hidden;" parent="288" vertex="1">
                    <mxGeometry x="30" width="100.00000000000011" height="30" as="geometry"/>
                </mxCell>
                <mxCell id="291" value="VARCHAR (30)" style="shape=partialRectangle;connectable=0;fillColor=none;top=0;left=0;bottom=0;right=0;align=left;spacingLeft=6;overflow=hidden;" parent="288" vertex="1">
                    <mxGeometry x="130.0000000000001" width="106.99999999999989" height="30" as="geometry"/>
                </mxCell>
                <mxCell id="796" style="edgeStyle=orthogonalEdgeStyle;rounded=0;orthogonalLoop=1;jettySize=auto;html=1;" parent="1" source="610" target="786" edge="1">
                    <mxGeometry relative="1" as="geometry"/>
                </mxCell>
                <mxCell id="817" style="edgeStyle=orthogonalEdgeStyle;rounded=0;orthogonalLoop=1;jettySize=auto;html=1;exitX=1.015;exitY=0.054;exitDx=0;exitDy=0;exitPerimeter=0;entryX=0;entryY=0.5;entryDx=0;entryDy=0;" parent="1" source="610" target="806" edge="1">
                    <mxGeometry relative="1" as="geometry">
                        <mxPoint x="-964" y="-973" as="targetPoint"/>
                    </mxGeometry>
                </mxCell>
                <mxCell id="610" value="Customer" style="shape=table;startSize=30;container=1;collapsible=1;childLayout=tableLayout;fixedRows=1;rowLines=0;fontStyle=1;align=center;resizeLast=1;" parent="1" vertex="1">
                    <mxGeometry x="-1230.6499999999999" y="-862" width="237.65" height="331" as="geometry"/>
                </mxCell>
                <mxCell id="779" value="" style="shape=partialRectangle;collapsible=0;dropTarget=0;pointerEvents=0;fillColor=none;top=0;left=0;bottom=1;right=0;points=[[0,0.5],[1,0.5]];portConstraint=eastwest;" parent="610" vertex="1">
                    <mxGeometry y="30" width="237.65" height="30" as="geometry"/>
                </mxCell>
                <mxCell id="780" value="PK" style="shape=partialRectangle;connectable=0;fillColor=none;top=0;left=0;bottom=0;right=0;fontStyle=1;overflow=hidden;" parent="779" vertex="1">
                    <mxGeometry width="30" height="30" as="geometry"/>
                </mxCell>
                <mxCell id="781" value="Customer_id" style="shape=partialRectangle;connectable=0;fillColor=none;top=0;left=0;bottom=0;right=0;align=left;spacingLeft=6;fontStyle=5;overflow=hidden;" parent="779" vertex="1">
                    <mxGeometry x="30" width="100.00000000000011" height="30" as="geometry"/>
                </mxCell>
                <mxCell id="782" value="BIGINT" style="shape=partialRectangle;connectable=0;fillColor=none;top=0;left=0;bottom=0;right=0;align=left;spacingLeft=6;fontStyle=5;overflow=hidden;" parent="779" vertex="1">
                    <mxGeometry x="130.0000000000001" width="107.64999999999989" height="30" as="geometry"/>
                </mxCell>
                <mxCell id="611" value="" style="shape=partialRectangle;collapsible=0;dropTarget=0;pointerEvents=0;fillColor=none;top=0;left=0;bottom=1;right=0;points=[[0,0.5],[1,0.5]];portConstraint=eastwest;" parent="610" vertex="1">
                    <mxGeometry y="60" width="237.65" height="30" as="geometry"/>
                </mxCell>
                <mxCell id="612" value="FK" style="shape=partialRectangle;connectable=0;fillColor=none;top=0;left=0;bottom=0;right=0;fontStyle=1;overflow=hidden;" parent="611" vertex="1">
                    <mxGeometry width="30" height="30" as="geometry"/>
                </mxCell>
                <mxCell id="613" value="Hotel_id" style="shape=partialRectangle;connectable=0;fillColor=none;top=0;left=0;bottom=0;right=0;align=left;spacingLeft=6;fontStyle=5;overflow=hidden;" parent="611" vertex="1">
                    <mxGeometry x="30" width="100.00000000000011" height="30" as="geometry"/>
                </mxCell>
                <mxCell id="614" value="BIGINT" style="shape=partialRectangle;connectable=0;fillColor=none;top=0;left=0;bottom=0;right=0;align=left;spacingLeft=6;fontStyle=5;overflow=hidden;" parent="611" vertex="1">
                    <mxGeometry x="130.0000000000001" width="107.64999999999989" height="30" as="geometry"/>
                </mxCell>
                <mxCell id="615" value="" style="shape=partialRectangle;collapsible=0;dropTarget=0;pointerEvents=0;fillColor=none;top=0;left=0;bottom=0;right=0;points=[[0,0.5],[1,0.5]];portConstraint=eastwest;" parent="610" vertex="1">
                    <mxGeometry y="90" width="237.65" height="30" as="geometry"/>
                </mxCell>
                <mxCell id="616" value="" style="shape=partialRectangle;connectable=0;fillColor=none;top=0;left=0;bottom=0;right=0;editable=1;overflow=hidden;" parent="615" vertex="1">
                    <mxGeometry width="30" height="30" as="geometry"/>
                </mxCell>
                <mxCell id="617" value="Nome" style="shape=partialRectangle;connectable=0;fillColor=none;top=0;left=0;bottom=0;right=0;align=left;spacingLeft=6;overflow=hidden;" parent="615" vertex="1">
                    <mxGeometry x="30" width="100.00000000000011" height="30" as="geometry"/>
                </mxCell>
                <mxCell id="618" value="VARCHAR (20)" style="shape=partialRectangle;connectable=0;fillColor=none;top=0;left=0;bottom=0;right=0;align=left;spacingLeft=6;overflow=hidden;" parent="615" vertex="1">
                    <mxGeometry x="130.0000000000001" width="107.64999999999989" height="30" as="geometry"/>
                </mxCell>
                <mxCell id="619" value="" style="shape=partialRectangle;collapsible=0;dropTarget=0;pointerEvents=0;fillColor=none;top=1;left=0;bottom=1;right=0;points=[[0,0.5],[1,0.5]];portConstraint=eastwest;" parent="610" vertex="1">
                    <mxGeometry y="120" width="237.65" height="30" as="geometry"/>
                </mxCell>
                <mxCell id="620" value="" style="shape=partialRectangle;connectable=0;fillColor=none;top=0;left=0;bottom=0;right=0;editable=1;overflow=hidden;" parent="619" vertex="1">
                    <mxGeometry width="30" height="30" as="geometry"/>
                </mxCell>
                <mxCell id="621" value="Cognome" style="shape=partialRectangle;connectable=0;fillColor=none;top=0;left=0;bottom=0;right=0;align=left;spacingLeft=6;overflow=hidden;" parent="619" vertex="1">
                    <mxGeometry x="30" width="100.00000000000011" height="30" as="geometry"/>
                </mxCell>
                <mxCell id="622" value="VARCHAR (20)" style="shape=partialRectangle;connectable=0;fillColor=none;top=0;left=0;bottom=0;right=0;align=left;spacingLeft=6;overflow=hidden;" parent="619" vertex="1">
                    <mxGeometry x="130.0000000000001" width="107.64999999999989" height="30" as="geometry"/>
                </mxCell>
                <mxCell id="623" value="" style="shape=partialRectangle;collapsible=0;dropTarget=0;pointerEvents=0;fillColor=none;top=0;left=0;bottom=0;right=0;points=[[0,0.5],[1,0.5]];portConstraint=eastwest;" parent="610" vertex="1">
                    <mxGeometry y="150" width="237.65" height="30" as="geometry"/>
                </mxCell>
                <mxCell id="624" value="" style="shape=partialRectangle;connectable=0;fillColor=none;top=0;left=0;bottom=0;right=0;editable=1;overflow=hidden;" parent="623" vertex="1">
                    <mxGeometry width="30" height="30" as="geometry"/>
                </mxCell>
                <mxCell id="625" value="Indirizzo" style="shape=partialRectangle;connectable=0;fillColor=none;top=0;left=0;bottom=0;right=0;align=left;spacingLeft=6;overflow=hidden;" parent="623" vertex="1">
                    <mxGeometry x="30" width="100.00000000000011" height="30" as="geometry"/>
                </mxCell>
                <mxCell id="626" value="VARCHAR (30)" style="shape=partialRectangle;connectable=0;fillColor=none;top=0;left=0;bottom=0;right=0;align=left;spacingLeft=6;overflow=hidden;" parent="623" vertex="1">
                    <mxGeometry x="130.0000000000001" width="107.64999999999989" height="30" as="geometry"/>
                </mxCell>
                <mxCell id="627" value="" style="shape=partialRectangle;collapsible=0;dropTarget=0;pointerEvents=0;fillColor=none;top=1;left=0;bottom=1;right=0;points=[[0,0.5],[1,0.5]];portConstraint=eastwest;" parent="610" vertex="1">
                    <mxGeometry y="180" width="237.65" height="30" as="geometry"/>
                </mxCell>
                <mxCell id="628" value="" style="shape=partialRectangle;connectable=0;fillColor=none;top=0;left=0;bottom=0;right=0;editable=1;overflow=hidden;" parent="627" vertex="1">
                    <mxGeometry width="30" height="30" as="geometry"/>
                </mxCell>
                <mxCell id="629" value="CittÃ " style="shape=partialRectangle;connectable=0;fillColor=none;top=0;left=0;bottom=0;right=0;align=left;spacingLeft=6;overflow=hidden;" parent="627" vertex="1">
                    <mxGeometry x="30" width="100.00000000000011" height="30" as="geometry"/>
                </mxCell>
                <mxCell id="630" value="VARCHAR (20)" style="shape=partialRectangle;connectable=0;fillColor=none;top=0;left=0;bottom=0;right=0;align=left;spacingLeft=6;overflow=hidden;" parent="627" vertex="1">
                    <mxGeometry x="130.0000000000001" width="107.64999999999989" height="30" as="geometry"/>
                </mxCell>
                <mxCell id="631" value="" style="shape=partialRectangle;collapsible=0;dropTarget=0;pointerEvents=0;fillColor=none;top=0;left=0;bottom=0;right=0;points=[[0,0.5],[1,0.5]];portConstraint=eastwest;" parent="610" vertex="1">
                    <mxGeometry y="210" width="237.65" height="30" as="geometry"/>
                </mxCell>
                <mxCell id="632" value="" style="shape=partialRectangle;connectable=0;fillColor=none;top=0;left=0;bottom=0;right=0;editable=1;overflow=hidden;" parent="631" vertex="1">
                    <mxGeometry width="30" height="30" as="geometry"/>
                </mxCell>
                <mxCell id="633" value="Stato" style="shape=partialRectangle;connectable=0;fillColor=none;top=0;left=0;bottom=0;right=0;align=left;spacingLeft=6;overflow=hidden;" parent="631" vertex="1">
                    <mxGeometry x="30" width="100.00000000000011" height="30" as="geometry"/>
                </mxCell>
                <mxCell id="634" value="VARCHAR (15)" style="shape=partialRectangle;connectable=0;fillColor=none;top=0;left=0;bottom=0;right=0;align=left;spacingLeft=6;overflow=hidden;" parent="631" vertex="1">
                    <mxGeometry x="130.0000000000001" width="107.64999999999989" height="30" as="geometry"/>
                </mxCell>
                <mxCell id="635" value="" style="shape=partialRectangle;collapsible=0;dropTarget=0;pointerEvents=0;fillColor=none;top=1;left=0;bottom=1;right=0;points=[[0,0.5],[1,0.5]];portConstraint=eastwest;" parent="610" vertex="1">
                    <mxGeometry y="240" width="237.65" height="30" as="geometry"/>
                </mxCell>
                <mxCell id="636" value="" style="shape=partialRectangle;connectable=0;fillColor=none;top=0;left=0;bottom=0;right=0;editable=1;overflow=hidden;" parent="635" vertex="1">
                    <mxGeometry width="30" height="30" as="geometry"/>
                </mxCell>
                <mxCell id="637" value="CAP" style="shape=partialRectangle;connectable=0;fillColor=none;top=0;left=0;bottom=0;right=0;align=left;spacingLeft=6;overflow=hidden;" parent="635" vertex="1">
                    <mxGeometry x="30" width="100.00000000000011" height="30" as="geometry"/>
                </mxCell>
                <mxCell id="638" value="VARCHAR (10)" style="shape=partialRectangle;connectable=0;fillColor=none;top=0;left=0;bottom=0;right=0;align=left;spacingLeft=6;overflow=hidden;" parent="635" vertex="1">
                    <mxGeometry x="130.0000000000001" width="107.64999999999989" height="30" as="geometry"/>
                </mxCell>
                <mxCell id="639" value="" style="shape=partialRectangle;collapsible=0;dropTarget=0;pointerEvents=0;fillColor=none;top=0;left=0;bottom=0;right=0;points=[[0,0.5],[1,0.5]];portConstraint=eastwest;" parent="610" vertex="1">
                    <mxGeometry y="270" width="237.65" height="30" as="geometry"/>
                </mxCell>
                <mxCell id="640" value="" style="shape=partialRectangle;connectable=0;fillColor=none;top=0;left=0;bottom=0;right=0;editable=1;overflow=hidden;" parent="639" vertex="1">
                    <mxGeometry width="30" height="30" as="geometry"/>
                </mxCell>
                <mxCell id="641" value="Telefono" style="shape=partialRectangle;connectable=0;fillColor=none;top=0;left=0;bottom=0;right=0;align=left;spacingLeft=6;overflow=hidden;" parent="639" vertex="1">
                    <mxGeometry x="30" width="100.00000000000011" height="30" as="geometry"/>
                </mxCell>
                <mxCell id="642" value="TINYINT" style="shape=partialRectangle;connectable=0;fillColor=none;top=0;left=0;bottom=0;right=0;align=left;spacingLeft=6;overflow=hidden;" parent="639" vertex="1">
                    <mxGeometry x="130.0000000000001" width="107.64999999999989" height="30" as="geometry"/>
                </mxCell>
                <mxCell id="643" value="" style="shape=partialRectangle;collapsible=0;dropTarget=0;pointerEvents=0;fillColor=none;top=1;left=0;bottom=1;right=0;points=[[0,0.5],[1,0.5]];portConstraint=eastwest;" parent="610" vertex="1">
                    <mxGeometry y="300" width="237.65" height="30" as="geometry"/>
                </mxCell>
                <mxCell id="644" value="" style="shape=partialRectangle;connectable=0;fillColor=none;top=0;left=0;bottom=0;right=0;editable=1;overflow=hidden;" parent="643" vertex="1">
                    <mxGeometry width="30" height="30" as="geometry"/>
                </mxCell>
                <mxCell id="645" value="Email" style="shape=partialRectangle;connectable=0;fillColor=none;top=0;left=0;bottom=0;right=0;align=left;spacingLeft=6;overflow=hidden;" parent="643" vertex="1">
                    <mxGeometry x="30" width="100.00000000000011" height="30" as="geometry"/>
                </mxCell>
                <mxCell id="646" value="VARCHAR (30)" style="shape=partialRectangle;connectable=0;fillColor=none;top=0;left=0;bottom=0;right=0;align=left;spacingLeft=6;overflow=hidden;" parent="643" vertex="1">
                    <mxGeometry x="130.0000000000001" width="107.64999999999989" height="30" as="geometry"/>
                </mxCell>
                <mxCell id="798" style="edgeStyle=orthogonalEdgeStyle;rounded=0;orthogonalLoop=1;jettySize=auto;html=1;entryX=0.5;entryY=1;entryDx=0;entryDy=0;" parent="1" source="647" target="791" edge="1">
                    <mxGeometry relative="1" as="geometry"/>
                </mxCell>
                <mxCell id="647" value="Pagamenti" style="shape=table;startSize=30;container=1;collapsible=1;childLayout=tableLayout;fixedRows=1;rowLines=0;fontStyle=1;align=center;resizeLast=1;" parent="1" vertex="1">
                    <mxGeometry x="-637.8200000000003" y="-767" width="237.65" height="203.39234834558874" as="geometry"/>
                </mxCell>
                <mxCell id="648" value="" style="shape=partialRectangle;collapsible=0;dropTarget=0;pointerEvents=0;fillColor=none;top=0;left=0;bottom=1;right=0;points=[[0,0.5],[1,0.5]];portConstraint=eastwest;" parent="647" vertex="1">
                    <mxGeometry y="30" width="237.65" height="30" as="geometry"/>
                </mxCell>
                <mxCell id="649" value="PK" style="shape=partialRectangle;connectable=0;fillColor=none;top=0;left=0;bottom=0;right=0;fontStyle=1;overflow=hidden;" parent="648" vertex="1">
                    <mxGeometry width="30" height="30" as="geometry"/>
                </mxCell>
                <mxCell id="650" value="Payment_id" style="shape=partialRectangle;connectable=0;fillColor=none;top=0;left=0;bottom=0;right=0;align=left;spacingLeft=6;fontStyle=5;overflow=hidden;" parent="648" vertex="1">
                    <mxGeometry x="30" width="100.00000000000011" height="30" as="geometry"/>
                </mxCell>
                <mxCell id="651" value="BIGINT" style="shape=partialRectangle;connectable=0;fillColor=none;top=0;left=0;bottom=0;right=0;align=left;spacingLeft=6;fontStyle=5;overflow=hidden;" parent="648" vertex="1">
                    <mxGeometry x="130.0000000000001" width="107.64999999999989" height="30" as="geometry"/>
                </mxCell>
                <mxCell id="734" value="" style="shape=partialRectangle;collapsible=0;dropTarget=0;pointerEvents=0;fillColor=none;top=0;left=0;bottom=1;right=0;points=[[0,0.5],[1,0.5]];portConstraint=eastwest;" parent="647" vertex="1">
                    <mxGeometry y="60" width="237.65" height="30" as="geometry"/>
                </mxCell>
                <mxCell id="735" value="FK" style="shape=partialRectangle;connectable=0;fillColor=none;top=0;left=0;bottom=0;right=0;fontStyle=1;overflow=hidden;" parent="734" vertex="1">
                    <mxGeometry width="30" height="30" as="geometry"/>
                </mxCell>
                <mxCell id="736" value="Customer_id" style="shape=partialRectangle;connectable=0;fillColor=none;top=0;left=0;bottom=0;right=0;align=left;spacingLeft=6;fontStyle=5;overflow=hidden;" parent="734" vertex="1">
                    <mxGeometry x="30" width="100.00000000000011" height="30" as="geometry"/>
                </mxCell>
                <mxCell id="737" value="BIGINT" style="shape=partialRectangle;connectable=0;fillColor=none;top=0;left=0;bottom=0;right=0;align=left;spacingLeft=6;fontStyle=5;overflow=hidden;" parent="734" vertex="1">
                    <mxGeometry x="130.0000000000001" width="107.64999999999989" height="30" as="geometry"/>
                </mxCell>
                <mxCell id="652" value="" style="shape=partialRectangle;collapsible=0;dropTarget=0;pointerEvents=0;fillColor=none;top=0;left=0;bottom=0;right=0;points=[[0,0.5],[1,0.5]];portConstraint=eastwest;" parent="647" vertex="1">
                    <mxGeometry y="90" width="237.65" height="30" as="geometry"/>
                </mxCell>
                <mxCell id="653" value="" style="shape=partialRectangle;connectable=0;fillColor=none;top=0;left=0;bottom=0;right=0;editable=1;overflow=hidden;" parent="652" vertex="1">
                    <mxGeometry width="30" height="30" as="geometry"/>
                </mxCell>
                <mxCell id="654" value="NumeroCarta" style="shape=partialRectangle;connectable=0;fillColor=none;top=0;left=0;bottom=0;right=0;align=left;spacingLeft=6;overflow=hidden;" parent="652" vertex="1">
                    <mxGeometry x="30" width="100.00000000000011" height="30" as="geometry"/>
                </mxCell>
                <mxCell id="655" value="VARCHAR (16)" style="shape=partialRectangle;connectable=0;fillColor=none;top=0;left=0;bottom=0;right=0;align=left;spacingLeft=6;overflow=hidden;" parent="652" vertex="1">
                    <mxGeometry x="130.0000000000001" width="107.64999999999989" height="30" as="geometry"/>
                </mxCell>
                <mxCell id="656" value="" style="shape=partialRectangle;collapsible=0;dropTarget=0;pointerEvents=0;fillColor=none;top=1;left=0;bottom=1;right=0;points=[[0,0.5],[1,0.5]];portConstraint=eastwest;" parent="647" vertex="1">
                    <mxGeometry y="120" width="237.65" height="28" as="geometry"/>
                </mxCell>
                <mxCell id="657" value="" style="shape=partialRectangle;connectable=0;fillColor=none;top=0;left=0;bottom=0;right=0;editable=1;overflow=hidden;" parent="656" vertex="1">
                    <mxGeometry width="30" height="28" as="geometry"/>
                </mxCell>
                <mxCell id="658" value="Scadenza" style="shape=partialRectangle;connectable=0;fillColor=none;top=0;left=0;bottom=0;right=0;align=left;spacingLeft=6;overflow=hidden;" parent="656" vertex="1">
                    <mxGeometry x="30" width="100.00000000000011" height="28" as="geometry"/>
                </mxCell>
                <mxCell id="659" value="DATE(MM:YY)" style="shape=partialRectangle;connectable=0;fillColor=none;top=0;left=0;bottom=0;right=0;align=left;spacingLeft=6;overflow=hidden;" parent="656" vertex="1">
                    <mxGeometry x="130.0000000000001" width="107.64999999999989" height="28" as="geometry"/>
                </mxCell>
                <mxCell id="660" value="" style="shape=partialRectangle;collapsible=0;dropTarget=0;pointerEvents=0;fillColor=none;top=0;left=0;bottom=0;right=0;points=[[0,0.5],[1,0.5]];portConstraint=eastwest;" parent="647" vertex="1">
                    <mxGeometry y="148" width="237.65" height="30" as="geometry"/>
                </mxCell>
                <mxCell id="661" value="" style="shape=partialRectangle;connectable=0;fillColor=none;top=0;left=0;bottom=0;right=0;editable=1;overflow=hidden;" parent="660" vertex="1">
                    <mxGeometry width="30" height="30" as="geometry"/>
                </mxCell>
                <mxCell id="662" value="Nome" style="shape=partialRectangle;connectable=0;fillColor=none;top=0;left=0;bottom=0;right=0;align=left;spacingLeft=6;overflow=hidden;" parent="660" vertex="1">
                    <mxGeometry x="30" width="100.00000000000011" height="30" as="geometry"/>
                </mxCell>
                <mxCell id="663" value="VARCHAR (30)" style="shape=partialRectangle;connectable=0;fillColor=none;top=0;left=0;bottom=0;right=0;align=left;spacingLeft=6;overflow=hidden;" parent="660" vertex="1">
                    <mxGeometry x="130.0000000000001" width="107.64999999999989" height="30" as="geometry"/>
                </mxCell>
                <mxCell id="664" value="" style="shape=partialRectangle;collapsible=0;dropTarget=0;pointerEvents=0;fillColor=none;top=1;left=0;bottom=1;right=0;points=[[0,0.5],[1,0.5]];portConstraint=eastwest;" parent="647" vertex="1">
                    <mxGeometry y="178" width="237.65" height="24" as="geometry"/>
                </mxCell>
                <mxCell id="665" value="" style="shape=partialRectangle;connectable=0;fillColor=none;top=0;left=0;bottom=0;right=0;editable=1;overflow=hidden;" parent="664" vertex="1">
                    <mxGeometry width="30" height="24" as="geometry"/>
                </mxCell>
                <mxCell id="666" value="CVV" style="shape=partialRectangle;connectable=0;fillColor=none;top=0;left=0;bottom=0;right=0;align=left;spacingLeft=6;overflow=hidden;" parent="664" vertex="1">
                    <mxGeometry x="30" width="100.00000000000011" height="24" as="geometry"/>
                </mxCell>
                <mxCell id="667" value="VARCHAR (3)" style="shape=partialRectangle;connectable=0;fillColor=none;top=0;left=0;bottom=0;right=0;align=left;spacingLeft=6;overflow=hidden;" parent="664" vertex="1">
                    <mxGeometry x="130.0000000000001" width="107.64999999999989" height="24" as="geometry"/>
                </mxCell>
                <mxCell id="684" value="Camera" style="shape=table;startSize=30;container=1;collapsible=1;childLayout=tableLayout;fixedRows=1;rowLines=0;fontStyle=1;align=center;resizeLast=1;" parent="1" vertex="1">
                    <mxGeometry x="-309.0000000000001" y="-1070" width="237.65" height="266.69437662760436" as="geometry"/>
                </mxCell>
                <mxCell id="685" value="" style="shape=partialRectangle;collapsible=0;dropTarget=0;pointerEvents=0;fillColor=none;top=0;left=0;bottom=1;right=0;points=[[0,0.5],[1,0.5]];portConstraint=eastwest;" parent="684" vertex="1">
                    <mxGeometry y="30" width="237.65" height="30" as="geometry"/>
                </mxCell>
                <mxCell id="686" value="PK" style="shape=partialRectangle;connectable=0;fillColor=none;top=0;left=0;bottom=0;right=0;fontStyle=1;overflow=hidden;" parent="685" vertex="1">
                    <mxGeometry width="30" height="30" as="geometry"/>
                </mxCell>
                <mxCell id="687" value="Camera_id" style="shape=partialRectangle;connectable=0;fillColor=none;top=0;left=0;bottom=0;right=0;align=left;spacingLeft=6;fontStyle=5;overflow=hidden;" parent="685" vertex="1">
                    <mxGeometry x="30" width="104.45102826286822" height="30" as="geometry"/>
                </mxCell>
                <mxCell id="688" value="BIGINT" style="shape=partialRectangle;connectable=0;fillColor=none;top=0;left=0;bottom=0;right=0;align=left;spacingLeft=6;fontStyle=5;overflow=hidden;" parent="685" vertex="1">
                    <mxGeometry x="134.45102826286822" width="103.19897173713179" height="30" as="geometry"/>
                </mxCell>
                <mxCell id="726" value="" style="shape=partialRectangle;collapsible=0;dropTarget=0;pointerEvents=0;fillColor=none;top=0;left=0;bottom=1;right=0;points=[[0,0.5],[1,0.5]];portConstraint=eastwest;" parent="684" vertex="1">
                    <mxGeometry y="60" width="237.65" height="30" as="geometry"/>
                </mxCell>
                <mxCell id="727" value="FK" style="shape=partialRectangle;connectable=0;fillColor=none;top=0;left=0;bottom=0;right=0;fontStyle=1;overflow=hidden;" parent="726" vertex="1">
                    <mxGeometry width="30" height="30" as="geometry"/>
                </mxCell>
                <mxCell id="728" value="Hotel_id" style="shape=partialRectangle;connectable=0;fillColor=none;top=0;left=0;bottom=0;right=0;align=left;spacingLeft=6;fontStyle=5;overflow=hidden;" parent="726" vertex="1">
                    <mxGeometry x="30" width="104.45102826286822" height="30" as="geometry"/>
                </mxCell>
                <mxCell id="729" value="BIGINT" style="shape=partialRectangle;connectable=0;fillColor=none;top=0;left=0;bottom=0;right=0;align=left;spacingLeft=6;fontStyle=5;overflow=hidden;" parent="726" vertex="1">
                    <mxGeometry x="134.45102826286822" width="103.19897173713179" height="30" as="geometry"/>
                </mxCell>
                <mxCell id="787" value="" style="shape=partialRectangle;collapsible=0;dropTarget=0;pointerEvents=0;fillColor=none;top=0;left=0;bottom=1;right=0;points=[[0,0.5],[1,0.5]];portConstraint=eastwest;" parent="684" vertex="1">
                    <mxGeometry y="90" width="237.65" height="30" as="geometry"/>
                </mxCell>
                <mxCell id="788" value="FK" style="shape=partialRectangle;connectable=0;fillColor=none;top=0;left=0;bottom=0;right=0;fontStyle=1;overflow=hidden;" parent="787" vertex="1">
                    <mxGeometry width="30" height="30" as="geometry"/>
                </mxCell>
                <mxCell id="789" value="Prenotazione_ID" style="shape=partialRectangle;connectable=0;fillColor=none;top=0;left=0;bottom=0;right=0;align=left;spacingLeft=6;fontStyle=5;overflow=hidden;" parent="787" vertex="1">
                    <mxGeometry x="30" width="104.45102826286822" height="30" as="geometry"/>
                </mxCell>
                <mxCell id="790" value="BIGINT" style="shape=partialRectangle;connectable=0;fillColor=none;top=0;left=0;bottom=0;right=0;align=left;spacingLeft=6;fontStyle=5;overflow=hidden;" parent="787" vertex="1">
                    <mxGeometry x="134.45102826286822" width="103.19897173713179" height="30" as="geometry"/>
                </mxCell>
                <mxCell id="689" value="" style="shape=partialRectangle;collapsible=0;dropTarget=0;pointerEvents=0;fillColor=none;top=0;left=0;bottom=0;right=0;points=[[0,0.5],[1,0.5]];portConstraint=eastwest;" parent="684" vertex="1">
                    <mxGeometry y="120" width="237.65" height="30" as="geometry"/>
                </mxCell>
                <mxCell id="690" value="" style="shape=partialRectangle;connectable=0;fillColor=none;top=0;left=0;bottom=0;right=0;editable=1;overflow=hidden;" parent="689" vertex="1">
                    <mxGeometry width="30" height="30" as="geometry"/>
                </mxCell>
                <mxCell id="691" value="Letti" style="shape=partialRectangle;connectable=0;fillColor=none;top=0;left=0;bottom=0;right=0;align=left;spacingLeft=6;overflow=hidden;" parent="689" vertex="1">
                    <mxGeometry x="30" width="104.45102826286822" height="30" as="geometry"/>
                </mxCell>
                <mxCell id="692" value="TINYINT" style="shape=partialRectangle;connectable=0;fillColor=none;top=0;left=0;bottom=0;right=0;align=left;spacingLeft=6;overflow=hidden;" parent="689" vertex="1">
                    <mxGeometry x="134.45102826286822" width="103.19897173713179" height="30" as="geometry"/>
                </mxCell>
                <mxCell id="877" value="" style="shape=partialRectangle;collapsible=0;dropTarget=0;pointerEvents=0;fillColor=none;top=1;left=0;bottom=1;right=0;points=[[0,0.5],[1,0.5]];portConstraint=eastwest;" vertex="1" parent="684">
                    <mxGeometry y="150" width="237.65" height="30" as="geometry"/>
                </mxCell>
                <mxCell id="878" value="" style="shape=partialRectangle;connectable=0;fillColor=none;top=0;left=0;bottom=0;right=0;editable=1;overflow=hidden;" vertex="1" parent="877">
                    <mxGeometry width="30" height="30" as="geometry"/>
                </mxCell>
                <mxCell id="879" value="Piano" style="shape=partialRectangle;connectable=0;fillColor=none;top=0;left=0;bottom=0;right=0;align=left;spacingLeft=6;overflow=hidden;" vertex="1" parent="877">
                    <mxGeometry x="30" width="104.45102826286822" height="30" as="geometry"/>
                </mxCell>
                <mxCell id="880" value="TINYINT" style="shape=partialRectangle;connectable=0;fillColor=none;top=0;left=0;bottom=0;right=0;align=left;spacingLeft=6;overflow=hidden;" vertex="1" parent="877">
                    <mxGeometry x="134.45102826286822" width="103.19897173713179" height="30" as="geometry"/>
                </mxCell>
                <mxCell id="889" value="" style="shape=partialRectangle;collapsible=0;dropTarget=0;pointerEvents=0;fillColor=none;top=1;left=0;bottom=1;right=0;points=[[0,0.5],[1,0.5]];portConstraint=eastwest;" vertex="1" parent="684">
                    <mxGeometry y="180" width="237.65" height="28" as="geometry"/>
                </mxCell>
                <mxCell id="890" value="" style="shape=partialRectangle;connectable=0;fillColor=none;top=0;left=0;bottom=0;right=0;editable=1;overflow=hidden;" vertex="1" parent="889">
                    <mxGeometry width="30" height="28" as="geometry"/>
                </mxCell>
                <mxCell id="891" value="Dimensione" style="shape=partialRectangle;connectable=0;fillColor=none;top=0;left=0;bottom=0;right=0;align=left;spacingLeft=6;overflow=hidden;" vertex="1" parent="889">
                    <mxGeometry x="30" width="104.45102826286822" height="28" as="geometry"/>
                </mxCell>
                <mxCell id="892" value="SMALLINT" style="shape=partialRectangle;connectable=0;fillColor=none;top=0;left=0;bottom=0;right=0;align=left;spacingLeft=6;overflow=hidden;" vertex="1" parent="889">
                    <mxGeometry x="134.45102826286822" width="103.19897173713179" height="28" as="geometry"/>
                </mxCell>
                <mxCell id="893" value="" style="shape=partialRectangle;collapsible=0;dropTarget=0;pointerEvents=0;fillColor=none;top=1;left=0;bottom=1;right=0;points=[[0,0.5],[1,0.5]];portConstraint=eastwest;" vertex="1" parent="684">
                    <mxGeometry y="208" width="237.65" height="28" as="geometry"/>
                </mxCell>
                <mxCell id="894" value="" style="shape=partialRectangle;connectable=0;fillColor=none;top=0;left=0;bottom=0;right=0;editable=1;overflow=hidden;" vertex="1" parent="893">
                    <mxGeometry width="30" height="28" as="geometry"/>
                </mxCell>
                <mxCell id="895" value="DisponibilitÃ " style="shape=partialRectangle;connectable=0;fillColor=none;top=0;left=0;bottom=0;right=0;align=left;spacingLeft=6;overflow=hidden;" vertex="1" parent="893">
                    <mxGeometry x="30" width="104.45102826286822" height="28" as="geometry"/>
                </mxCell>
                <mxCell id="896" value="TINYINT" style="shape=partialRectangle;connectable=0;fillColor=none;top=0;left=0;bottom=0;right=0;align=left;spacingLeft=6;overflow=hidden;" vertex="1" parent="893">
                    <mxGeometry x="134.45102826286822" width="103.19897173713179" height="28" as="geometry"/>
                </mxCell>
                <mxCell id="881" value="" style="shape=partialRectangle;collapsible=0;dropTarget=0;pointerEvents=0;fillColor=none;top=1;left=0;bottom=1;right=0;points=[[0,0.5],[1,0.5]];portConstraint=eastwest;" vertex="1" parent="684">
                    <mxGeometry y="236" width="237.65" height="30" as="geometry"/>
                </mxCell>
                <mxCell id="882" value="" style="shape=partialRectangle;connectable=0;fillColor=none;top=0;left=0;bottom=0;right=0;editable=1;overflow=hidden;" vertex="1" parent="881">
                    <mxGeometry width="30" height="30" as="geometry"/>
                </mxCell>
                <mxCell id="883" value="Prezzo" style="shape=partialRectangle;connectable=0;fillColor=none;top=0;left=0;bottom=0;right=0;align=left;spacingLeft=6;overflow=hidden;" vertex="1" parent="881">
                    <mxGeometry x="30" width="104.45102826286822" height="30" as="geometry"/>
                </mxCell>
                <mxCell id="884" value="FLOAT(9,2)" style="shape=partialRectangle;connectable=0;fillColor=none;top=0;left=0;bottom=0;right=0;align=left;spacingLeft=6;overflow=hidden;" vertex="1" parent="881">
                    <mxGeometry x="134.45102826286822" width="103.19897173713179" height="30" as="geometry"/>
                </mxCell>
                <mxCell id="803" style="edgeStyle=orthogonalEdgeStyle;rounded=0;orthogonalLoop=1;jettySize=auto;html=1;" parent="1" source="783" edge="1">
                    <mxGeometry relative="1" as="geometry">
                        <mxPoint x="-678" y="-1168" as="targetPoint"/>
                    </mxGeometry>
                </mxCell>
                <mxCell id="783" value="Relationship" style="shape=rhombus;perimeter=rhombusPerimeter;whiteSpace=wrap;html=1;align=center;" parent="1" vertex="1">
                    <mxGeometry x="-886" y="-1198" width="120" height="60" as="geometry"/>
                </mxCell>
                <mxCell id="797" style="edgeStyle=orthogonalEdgeStyle;rounded=0;orthogonalLoop=1;jettySize=auto;html=1;entryX=-0.017;entryY=0.088;entryDx=0;entryDy=0;entryPerimeter=0;" parent="1" source="786" target="647" edge="1">
                    <mxGeometry relative="1" as="geometry"/>
                </mxCell>
                <mxCell id="786" value="Relationship" style="shape=rhombus;perimeter=rhombusPerimeter;whiteSpace=wrap;html=1;align=center;" parent="1" vertex="1">
                    <mxGeometry x="-884" y="-779" width="120" height="60" as="geometry"/>
                </mxCell>
                <mxCell id="864" style="edgeStyle=orthogonalEdgeStyle;rounded=0;orthogonalLoop=1;jettySize=auto;html=1;" parent="1" source="791" edge="1">
                    <mxGeometry relative="1" as="geometry">
                        <mxPoint x="-519" y="-901" as="targetPoint"/>
                    </mxGeometry>
                </mxCell>
                <mxCell id="791" value="Relationship" style="shape=rhombus;perimeter=rhombusPerimeter;whiteSpace=wrap;html=1;align=center;" parent="1" vertex="1">
                    <mxGeometry x="-578.99" y="-873" width="120" height="60" as="geometry"/>
                </mxCell>
                <mxCell id="795" style="edgeStyle=orthogonalEdgeStyle;rounded=0;orthogonalLoop=1;jettySize=auto;html=1;entryX=0.5;entryY=0;entryDx=0;entryDy=0;" parent="1" source="792" target="610" edge="1">
                    <mxGeometry relative="1" as="geometry"/>
                </mxCell>
                <mxCell id="792" value="Relationship" style="shape=rhombus;perimeter=rhombusPerimeter;whiteSpace=wrap;html=1;align=center;" parent="1" vertex="1">
                    <mxGeometry x="-1171.5" y="-962" width="120" height="60" as="geometry"/>
                </mxCell>
                <mxCell id="804" value="1" style="text;html=1;align=center;verticalAlign=middle;resizable=0;points=[];autosize=1;" parent="1" vertex="1">
                    <mxGeometry x="-941" y="-1216" width="17" height="18" as="geometry"/>
                </mxCell>
                <mxCell id="805" value="Molti" style="text;html=1;align=center;verticalAlign=middle;resizable=0;points=[];autosize=1;" parent="1" vertex="1">
                    <mxGeometry x="-746" y="-1198" width="35" height="18" as="geometry"/>
                </mxCell>
                <mxCell id="865" style="edgeStyle=orthogonalEdgeStyle;rounded=0;orthogonalLoop=1;jettySize=auto;html=1;entryX=0;entryY=0.5;entryDx=0;entryDy=0;" parent="1" source="806" target="835" edge="1">
                    <mxGeometry relative="1" as="geometry"/>
                </mxCell>
                <mxCell id="806" value="Relationship" style="shape=rhombus;perimeter=rhombusPerimeter;whiteSpace=wrap;html=1;align=center;" parent="1" vertex="1">
                    <mxGeometry x="-884" y="-993" width="120" height="60" as="geometry"/>
                </mxCell>
                <mxCell id="809" value="1" style="text;html=1;align=center;verticalAlign=middle;resizable=0;points=[];autosize=1;" parent="1" vertex="1">
                    <mxGeometry x="-938" y="-992" width="17" height="18" as="geometry"/>
                </mxCell>
                <mxCell id="810" value="Molti" style="text;html=1;align=center;verticalAlign=middle;resizable=0;points=[];autosize=1;" parent="1" vertex="1">
                    <mxGeometry x="-812" y="-1029" width="35" height="18" as="geometry"/>
                </mxCell>
                <mxCell id="811" value="1" style="text;html=1;align=center;verticalAlign=middle;resizable=0;points=[];autosize=1;" parent="1" vertex="1">
                    <mxGeometry x="-553" y="-799" width="17" height="18" as="geometry"/>
                </mxCell>
                <mxCell id="812" value="1" style="text;html=1;align=center;verticalAlign=middle;resizable=0;points=[];autosize=1;" parent="1" vertex="1">
                    <mxGeometry x="-556.68" y="-896" width="17" height="18" as="geometry"/>
                </mxCell>
                <mxCell id="813" value="1" style="text;html=1;align=center;verticalAlign=middle;resizable=0;points=[];autosize=1;" parent="1" vertex="1">
                    <mxGeometry x="-731" y="-773" width="17" height="18" as="geometry"/>
                </mxCell>
                <mxCell id="814" value="1" style="text;html=1;align=center;verticalAlign=middle;resizable=0;points=[];autosize=1;" parent="1" vertex="1">
                    <mxGeometry x="-928" y="-735" width="17" height="18" as="geometry"/>
                </mxCell>
                <mxCell id="815" value="1" style="text;html=1;align=center;verticalAlign=middle;resizable=0;points=[];autosize=1;" parent="1" vertex="1">
                    <mxGeometry x="-1149" y="-995" width="17" height="18" as="geometry"/>
                </mxCell>
                <mxCell id="816" value="Molti" style="text;html=1;align=center;verticalAlign=middle;resizable=0;points=[];autosize=1;" parent="1" vertex="1">
                    <mxGeometry x="-1167" y="-891" width="35" height="18" as="geometry"/>
                </mxCell>
                <mxCell id="939" style="edgeStyle=orthogonalEdgeStyle;rounded=0;orthogonalLoop=1;jettySize=auto;html=1;" edge="1" parent="1" target="866">
                    <mxGeometry relative="1" as="geometry">
                        <mxPoint x="-419" y="-1168" as="sourcePoint"/>
                    </mxGeometry>
                </mxCell>
                <mxCell id="822" value="Prenotazione" style="shape=table;startSize=30;container=1;collapsible=1;childLayout=tableLayout;fixedRows=1;rowLines=0;fontStyle=1;align=center;resizeLast=1;" parent="1" vertex="1">
                    <mxGeometry x="-667.0000000000001" y="-1210" width="237.65" height="300.39209702435664" as="geometry"/>
                </mxCell>
                <mxCell id="823" value="" style="shape=partialRectangle;collapsible=0;dropTarget=0;pointerEvents=0;fillColor=none;top=0;left=0;bottom=1;right=0;points=[[0,0.5],[1,0.5]];portConstraint=eastwest;" parent="822" vertex="1">
                    <mxGeometry y="30" width="237.65" height="30" as="geometry"/>
                </mxCell>
                <mxCell id="824" value="PK" style="shape=partialRectangle;connectable=0;fillColor=none;top=0;left=0;bottom=0;right=0;fontStyle=1;overflow=hidden;" parent="823" vertex="1">
                    <mxGeometry width="30" height="30" as="geometry"/>
                </mxCell>
                <mxCell id="825" value="Prenotazione_id" style="shape=partialRectangle;connectable=0;fillColor=none;top=0;left=0;bottom=0;right=0;align=left;spacingLeft=6;fontStyle=5;overflow=hidden;" parent="823" vertex="1">
                    <mxGeometry x="30" width="104.19617417279434" height="30" as="geometry"/>
                </mxCell>
                <mxCell id="826" value="BIGINT" style="shape=partialRectangle;connectable=0;fillColor=none;top=0;left=0;bottom=0;right=0;align=left;spacingLeft=6;fontStyle=5;overflow=hidden;" parent="823" vertex="1">
                    <mxGeometry x="134.19617417279434" width="103.45382582720566" height="30" as="geometry"/>
                </mxCell>
                <mxCell id="827" value="" style="shape=partialRectangle;collapsible=0;dropTarget=0;pointerEvents=0;fillColor=none;top=0;left=0;bottom=1;right=0;points=[[0,0.5],[1,0.5]];portConstraint=eastwest;" parent="822" vertex="1">
                    <mxGeometry y="60" width="237.65" height="30" as="geometry"/>
                </mxCell>
                <mxCell id="828" value="FK" style="shape=partialRectangle;connectable=0;fillColor=none;top=0;left=0;bottom=0;right=0;fontStyle=1;overflow=hidden;" parent="827" vertex="1">
                    <mxGeometry width="30" height="30" as="geometry"/>
                </mxCell>
                <mxCell id="829" value="Hotel_id" style="shape=partialRectangle;connectable=0;fillColor=none;top=0;left=0;bottom=0;right=0;align=left;spacingLeft=6;fontStyle=5;overflow=hidden;" parent="827" vertex="1">
                    <mxGeometry x="30" width="104.19617417279434" height="30" as="geometry"/>
                </mxCell>
                <mxCell id="830" value="BIGINT" style="shape=partialRectangle;connectable=0;fillColor=none;top=0;left=0;bottom=0;right=0;align=left;spacingLeft=6;fontStyle=5;overflow=hidden;" parent="827" vertex="1">
                    <mxGeometry x="134.19617417279434" width="103.45382582720566" height="30" as="geometry"/>
                </mxCell>
                <mxCell id="935" value="" style="shape=partialRectangle;collapsible=0;dropTarget=0;pointerEvents=0;fillColor=none;top=0;left=0;bottom=1;right=0;points=[[0,0.5],[1,0.5]];portConstraint=eastwest;" vertex="1" parent="822">
                    <mxGeometry y="90" width="237.65" height="30" as="geometry"/>
                </mxCell>
                <mxCell id="936" value="FK" style="shape=partialRectangle;connectable=0;fillColor=none;top=0;left=0;bottom=0;right=0;fontStyle=1;overflow=hidden;" vertex="1" parent="935">
                    <mxGeometry width="30" height="30" as="geometry"/>
                </mxCell>
                <mxCell id="937" value="Camera_id" style="shape=partialRectangle;connectable=0;fillColor=none;top=0;left=0;bottom=0;right=0;align=left;spacingLeft=6;fontStyle=5;overflow=hidden;" vertex="1" parent="935">
                    <mxGeometry x="30" width="104.19617417279434" height="30" as="geometry"/>
                </mxCell>
                <mxCell id="938" value="BIGINT" style="shape=partialRectangle;connectable=0;fillColor=none;top=0;left=0;bottom=0;right=0;align=left;spacingLeft=6;fontStyle=5;overflow=hidden;" vertex="1" parent="935">
                    <mxGeometry x="134.19617417279434" width="103.45382582720566" height="30" as="geometry"/>
                </mxCell>
                <mxCell id="831" value="" style="shape=partialRectangle;collapsible=0;dropTarget=0;pointerEvents=0;fillColor=none;top=0;left=0;bottom=1;right=0;points=[[0,0.5],[1,0.5]];portConstraint=eastwest;" parent="822" vertex="1">
                    <mxGeometry y="120" width="237.65" height="30" as="geometry"/>
                </mxCell>
                <mxCell id="832" value="FK" style="shape=partialRectangle;connectable=0;fillColor=none;top=0;left=0;bottom=0;right=0;fontStyle=1;overflow=hidden;" parent="831" vertex="1">
                    <mxGeometry width="30" height="30" as="geometry"/>
                </mxCell>
                <mxCell id="833" value="Customer_id" style="shape=partialRectangle;connectable=0;fillColor=none;top=0;left=0;bottom=0;right=0;align=left;spacingLeft=6;fontStyle=5;overflow=hidden;" parent="831" vertex="1">
                    <mxGeometry x="30" width="104.19617417279434" height="30" as="geometry"/>
                </mxCell>
                <mxCell id="834" value="BIGINT" style="shape=partialRectangle;connectable=0;fillColor=none;top=0;left=0;bottom=0;right=0;align=left;spacingLeft=6;fontStyle=5;overflow=hidden;" parent="831" vertex="1">
                    <mxGeometry x="134.19617417279434" width="103.45382582720566" height="30" as="geometry"/>
                </mxCell>
                <mxCell id="835" value="" style="shape=partialRectangle;collapsible=0;dropTarget=0;pointerEvents=0;fillColor=none;top=0;left=0;bottom=1;right=0;points=[[0,0.5],[1,0.5]];portConstraint=eastwest;" parent="822" vertex="1">
                    <mxGeometry y="150" width="237.65" height="30" as="geometry"/>
                </mxCell>
                <mxCell id="836" value="FK" style="shape=partialRectangle;connectable=0;fillColor=none;top=0;left=0;bottom=0;right=0;fontStyle=1;overflow=hidden;" parent="835" vertex="1">
                    <mxGeometry width="30" height="30" as="geometry"/>
                </mxCell>
                <mxCell id="837" value="Payment_id" style="shape=partialRectangle;connectable=0;fillColor=none;top=0;left=0;bottom=0;right=0;align=left;spacingLeft=6;fontStyle=5;overflow=hidden;" parent="835" vertex="1">
                    <mxGeometry x="30" width="104.19617417279434" height="30" as="geometry"/>
                </mxCell>
                <mxCell id="838" value="BIGINT" style="shape=partialRectangle;connectable=0;fillColor=none;top=0;left=0;bottom=0;right=0;align=left;spacingLeft=6;fontStyle=5;overflow=hidden;" parent="835" vertex="1">
                    <mxGeometry x="134.19617417279434" width="103.45382582720566" height="30" as="geometry"/>
                </mxCell>
                <mxCell id="839" value="" style="shape=partialRectangle;collapsible=0;dropTarget=0;pointerEvents=0;fillColor=none;top=0;left=0;bottom=0;right=0;points=[[0,0.5],[1,0.5]];portConstraint=eastwest;" parent="822" vertex="1">
                    <mxGeometry y="180" width="237.65" height="30" as="geometry"/>
                </mxCell>
                <mxCell id="840" value="" style="shape=partialRectangle;connectable=0;fillColor=none;top=0;left=0;bottom=0;right=0;editable=1;overflow=hidden;" parent="839" vertex="1">
                    <mxGeometry width="30" height="30" as="geometry"/>
                </mxCell>
                <mxCell id="841" value="Data_inizio" style="shape=partialRectangle;connectable=0;fillColor=none;top=0;left=0;bottom=0;right=0;align=left;spacingLeft=6;overflow=hidden;" parent="839" vertex="1">
                    <mxGeometry x="30" width="104.19617417279434" height="30" as="geometry"/>
                </mxCell>
                <mxCell id="842" value="DATETIME" style="shape=partialRectangle;connectable=0;fillColor=none;top=0;left=0;bottom=0;right=0;align=left;spacingLeft=6;overflow=hidden;" parent="839" vertex="1">
                    <mxGeometry x="134.19617417279434" width="103.45382582720566" height="30" as="geometry"/>
                </mxCell>
                <mxCell id="843" value="" style="shape=partialRectangle;collapsible=0;dropTarget=0;pointerEvents=0;fillColor=none;top=1;left=0;bottom=1;right=0;points=[[0,0.5],[1,0.5]];portConstraint=eastwest;" parent="822" vertex="1">
                    <mxGeometry y="210" width="237.65" height="30" as="geometry"/>
                </mxCell>
                <mxCell id="844" value="" style="shape=partialRectangle;connectable=0;fillColor=none;top=0;left=0;bottom=0;right=0;editable=1;overflow=hidden;" parent="843" vertex="1">
                    <mxGeometry width="30" height="30" as="geometry"/>
                </mxCell>
                <mxCell id="845" value="Data_fine" style="shape=partialRectangle;connectable=0;fillColor=none;top=0;left=0;bottom=0;right=0;align=left;spacingLeft=6;overflow=hidden;" parent="843" vertex="1">
                    <mxGeometry x="30" width="104.19617417279434" height="30" as="geometry"/>
                </mxCell>
                <mxCell id="846" value="DATETIME" style="shape=partialRectangle;connectable=0;fillColor=none;top=0;left=0;bottom=0;right=0;align=left;spacingLeft=6;overflow=hidden;" parent="843" vertex="1">
                    <mxGeometry x="134.19617417279434" width="103.45382582720566" height="30" as="geometry"/>
                </mxCell>
                <mxCell id="859" value="" style="shape=partialRectangle;collapsible=0;dropTarget=0;pointerEvents=0;fillColor=none;top=1;left=0;bottom=1;right=0;points=[[0,0.5],[1,0.5]];portConstraint=eastwest;" parent="822" vertex="1">
                    <mxGeometry y="240" width="237.65" height="30" as="geometry"/>
                </mxCell>
                <mxCell id="860" value="" style="shape=partialRectangle;connectable=0;fillColor=none;top=0;left=0;bottom=0;right=0;editable=1;overflow=hidden;" parent="859" vertex="1">
                    <mxGeometry width="30" height="30" as="geometry"/>
                </mxCell>
                <mxCell id="861" value="Prezzo_tot" style="shape=partialRectangle;connectable=0;fillColor=none;top=0;left=0;bottom=0;right=0;align=left;spacingLeft=6;overflow=hidden;" parent="859" vertex="1">
                    <mxGeometry x="30" width="104.19617417279434" height="30" as="geometry"/>
                </mxCell>
                <mxCell id="862" value="FLOAT(9,2)" style="shape=partialRectangle;connectable=0;fillColor=none;top=0;left=0;bottom=0;right=0;align=left;spacingLeft=6;overflow=hidden;" parent="859" vertex="1">
                    <mxGeometry x="134.19617417279434" width="103.45382582720566" height="30" as="geometry"/>
                </mxCell>
                <mxCell id="847" value="" style="shape=partialRectangle;collapsible=0;dropTarget=0;pointerEvents=0;fillColor=none;top=0;left=0;bottom=0;right=0;points=[[0,0.5],[1,0.5]];portConstraint=eastwest;" parent="822" vertex="1">
                    <mxGeometry y="270" width="237.65" height="30" as="geometry"/>
                </mxCell>
                <mxCell id="848" value="" style="shape=partialRectangle;connectable=0;fillColor=none;top=0;left=0;bottom=0;right=0;editable=1;overflow=hidden;" parent="847" vertex="1">
                    <mxGeometry width="30" height="30" as="geometry"/>
                </mxCell>
                <mxCell id="849" value="Persone" style="shape=partialRectangle;connectable=0;fillColor=none;top=0;left=0;bottom=0;right=0;align=left;spacingLeft=6;overflow=hidden;" parent="847" vertex="1">
                    <mxGeometry x="30" width="104.19617417279434" height="30" as="geometry"/>
                </mxCell>
                <mxCell id="850" value="VARCHAR (30)" style="shape=partialRectangle;connectable=0;fillColor=none;top=0;left=0;bottom=0;right=0;align=left;spacingLeft=6;overflow=hidden;" parent="847" vertex="1">
                    <mxGeometry x="134.19617417279434" width="103.45382582720566" height="30" as="geometry"/>
                </mxCell>
                <mxCell id="867" style="edgeStyle=orthogonalEdgeStyle;rounded=0;orthogonalLoop=1;jettySize=auto;html=1;" parent="1" source="866" edge="1">
                    <mxGeometry relative="1" as="geometry">
                        <mxPoint x="-214.00000000000045" y="-1071.6078670726101" as="targetPoint"/>
                    </mxGeometry>
                </mxCell>
                <mxCell id="866" value="Relationship" style="shape=rhombus;perimeter=rhombusPerimeter;whiteSpace=wrap;html=1;align=center;" parent="1" vertex="1">
                    <mxGeometry x="-274" y="-1198" width="120" height="60" as="geometry"/>
                </mxCell>
                <mxCell id="869" value="1" style="text;html=1;align=center;verticalAlign=middle;resizable=0;points=[];autosize=1;" parent="1" vertex="1">
                    <mxGeometry x="-353" y="-1156" width="17" height="18" as="geometry"/>
                </mxCell>
                <mxCell id="870" value="Molti" style="text;html=1;align=center;verticalAlign=middle;resizable=0;points=[];autosize=1;" parent="1" vertex="1">
                    <mxGeometry x="-251" y="-1103" width="35" height="18" as="geometry"/>
                </mxCell>
                <mxCell id="872" value="1" style="text;html=1;align=center;verticalAlign=middle;resizable=0;points=[];autosize=1;" parent="1" vertex="1">
                    <mxGeometry x="-245" y="-1255" width="17" height="18" as="geometry"/>
                </mxCell>
            </root>
        </mxGraphModel>
    </diagram>
</mxfile>